<svg
  width="75"
  height="20"
  viewBox="0 0 75 20"
  fill="none"
  xmlns="http://www.w3.org/2000/svg"
>
  <path
    fill-rule="evenodd"
    clip-rule="evenodd"
    d="M46.6514 0V5.6V14.4H40.6829V0H35.1124V14.4H28.3481V5.6V0H22.7775V20H52.222V0H46.6514Z"
    fill="white"
  />
  <path
    fill-rule="evenodd"
    clip-rule="evenodd"
    d="M69.3556 5.6H60.5556V14.4V20H69.3556V14.4V5.6ZM55 0V20H74.9556V0H55Z"
    fill="white"
  />
  <path
    fill-rule="evenodd"
    clip-rule="evenodd"
    d="M20 0H0V20H20V0ZM10.2932 18.2176C10.1497 18.6061 9.58344 18.6061 9.43989 18.2176C7.75937 13.6693 6.10773 12.0177 1.55942 10.3371C1.17089 10.1936 1.17089 9.62734 1.55942 9.48378C6.10773 7.80326 7.75937 6.15163 9.43989 1.60332C9.58344 1.21478 10.1497 1.21478 10.2932 1.60332C11.9738 6.15163 13.6254 7.80326 18.1737 9.48378C18.5622 9.62734 18.5622 10.1936 18.1737 10.3371C13.6254 12.0177 11.9738 13.6693 10.2932 18.2176Z"
    fill="white"
  />
</svg>