<svg width="23" height="23" viewBox="0 0 23 23" fill="none" xmlns="http://www.w3.org/2000/svg">
<circle cx="11.5" cy="11.5" r="11.5" fill="#479E86"/>
<g clip-path="url(#clip0_1_2840)">
<path fill-rule="evenodd" clip-rule="evenodd" d="M6.80884 6.19791L4.17003 11.7492C4.15999 11.7699 4.1568 11.7932 4.16095 11.8158C4.16509 11.8384 4.17634 11.859 4.19305 11.8748L11.3199 18.7144C11.3401 18.7338 11.3671 18.7447 11.3951 18.7447C11.4232 18.7447 11.4501 18.7338 11.4704 18.7144L18.5972 11.8752C18.6139 11.8595 18.6251 11.8388 18.6293 11.8162C18.6334 11.7936 18.6302 11.7703 18.6202 11.7496L15.9814 6.19834C15.9729 6.1797 15.9592 6.1639 15.9419 6.15285C15.9247 6.14179 15.9046 6.13594 15.8842 6.13599H6.90691C6.88634 6.13574 6.86614 6.14145 6.84874 6.15243C6.83133 6.16342 6.81748 6.17922 6.80884 6.19791Z" fill="white"/>
<path fill-rule="evenodd" clip-rule="evenodd" d="M12.3109 12.32C12.2597 12.3238 11.9954 12.3396 11.4057 12.3396C10.9367 12.3396 10.6037 12.3255 10.4869 12.32C8.67438 12.2401 7.32151 11.9241 7.32151 11.5458C7.32151 11.1675 8.67438 10.8519 10.4869 10.7708V12.0053C10.6054 12.0138 10.9448 12.0339 11.4138 12.0339C11.9766 12.0339 12.2585 12.0104 12.3092 12.0057V10.7716C14.1179 10.8523 15.4678 11.1683 15.4678 11.5458C15.4678 11.9233 14.1183 12.2393 12.3092 12.3196L12.3109 12.32ZM12.3109 10.6439V9.53922H14.835V7.85461H7.96277V9.53922H10.4865V10.6435C8.43519 10.7379 6.89258 11.1448 6.89258 11.6325C6.89258 12.1201 8.43519 12.5267 10.4865 12.6215V16.1615H12.3105V12.6202C14.3571 12.5258 15.8971 12.1193 15.8971 11.6321C15.8971 11.1448 14.3583 10.7383 12.3105 10.6435L12.3109 10.6439Z" fill="#479E86"/>
</g>
<defs>
<clipPath id="clip0_1_2840">
<rect width="14.95" height="13.3968" fill="white" transform="translate(4.0249 5.75)"/>
</clipPath>
</defs>
</svg>
